<mxfile host="app.diagrams.net" agent="Mozilla/5.0 (Windows NT 10.0; Win64; x64) AppleWebKit/537.36 (KHTML, like Gecko) Chrome/134.0.0.0 Safari/537.36" version="26.1.0">
  <diagram name="Strona-1" id="ZqaPtG1ivPn44mdfNGnp">
    <mxGraphModel dx="683" dy="330" grid="1" gridSize="10" guides="1" tooltips="1" connect="1" arrows="1" fold="1" page="1" pageScale="1" pageWidth="827" pageHeight="1169" math="0" shadow="0">
      <root>
        <mxCell id="0" />
        <mxCell id="1" parent="0" />
        <mxCell id="rTognye64vTiyhF6BSoS-6" style="edgeStyle=orthogonalEdgeStyle;rounded=0;orthogonalLoop=1;jettySize=auto;html=1;exitX=1;exitY=0.5;exitDx=0;exitDy=0;endArrow=ERoneToMany;endFill=0;" edge="1" parent="1" source="rTognye64vTiyhF6BSoS-1" target="rTognye64vTiyhF6BSoS-2">
          <mxGeometry relative="1" as="geometry" />
        </mxCell>
        <mxCell id="rTognye64vTiyhF6BSoS-1" value="Samochód" style="whiteSpace=wrap;html=1;align=center;" vertex="1" parent="1">
          <mxGeometry x="160" y="180" width="100" height="40" as="geometry" />
        </mxCell>
        <mxCell id="rTognye64vTiyhF6BSoS-8" style="edgeStyle=orthogonalEdgeStyle;rounded=0;orthogonalLoop=1;jettySize=auto;html=1;exitX=0;exitY=0.5;exitDx=0;exitDy=0;entryX=1;entryY=0.5;entryDx=0;entryDy=0;endArrow=ERzeroToMany;endFill=0;" edge="1" parent="1" source="rTognye64vTiyhF6BSoS-2" target="rTognye64vTiyhF6BSoS-1">
          <mxGeometry relative="1" as="geometry" />
        </mxCell>
        <mxCell id="rTognye64vTiyhF6BSoS-9" value="posiada" style="edgeLabel;html=1;align=center;verticalAlign=middle;resizable=0;points=[];" vertex="1" connectable="0" parent="rTognye64vTiyhF6BSoS-8">
          <mxGeometry x="0.0727" y="3" relative="1" as="geometry">
            <mxPoint as="offset" />
          </mxGeometry>
        </mxCell>
        <mxCell id="rTognye64vTiyhF6BSoS-2" value="Osoba" style="whiteSpace=wrap;html=1;align=center;" vertex="1" parent="1">
          <mxGeometry x="450" y="180" width="100" height="40" as="geometry" />
        </mxCell>
        <mxCell id="rTognye64vTiyhF6BSoS-12" style="edgeStyle=orthogonalEdgeStyle;rounded=0;orthogonalLoop=1;jettySize=auto;html=1;endArrow=ERmandOne;endFill=0;" edge="1" parent="1" source="rTognye64vTiyhF6BSoS-10" target="rTognye64vTiyhF6BSoS-11">
          <mxGeometry relative="1" as="geometry" />
        </mxCell>
        <mxCell id="rTognye64vTiyhF6BSoS-10" value="Student" style="whiteSpace=wrap;html=1;align=center;" vertex="1" parent="1">
          <mxGeometry x="170" y="380" width="100" height="40" as="geometry" />
        </mxCell>
        <mxCell id="rTognye64vTiyhF6BSoS-13" style="edgeStyle=orthogonalEdgeStyle;rounded=0;orthogonalLoop=1;jettySize=auto;html=1;exitX=0;exitY=0.5;exitDx=0;exitDy=0;endArrow=ERzeroToMany;endFill=0;" edge="1" parent="1" source="rTognye64vTiyhF6BSoS-11" target="rTognye64vTiyhF6BSoS-10">
          <mxGeometry relative="1" as="geometry" />
        </mxCell>
        <mxCell id="rTognye64vTiyhF6BSoS-18" value="współpracuje" style="edgeLabel;html=1;align=center;verticalAlign=middle;resizable=0;points=[];" vertex="1" connectable="0" parent="rTognye64vTiyhF6BSoS-13">
          <mxGeometry x="0.02" y="4" relative="1" as="geometry">
            <mxPoint as="offset" />
          </mxGeometry>
        </mxCell>
        <mxCell id="rTognye64vTiyhF6BSoS-11" value="Wykładowca" style="whiteSpace=wrap;html=1;align=center;" vertex="1" parent="1">
          <mxGeometry x="450" y="380" width="100" height="40" as="geometry" />
        </mxCell>
        <mxCell id="rTognye64vTiyhF6BSoS-15" value="Właściciel" style="text;html=1;align=center;verticalAlign=middle;resizable=0;points=[];autosize=1;strokeColor=none;fillColor=none;" vertex="1" parent="1">
          <mxGeometry x="435" y="148" width="80" height="30" as="geometry" />
        </mxCell>
        <mxCell id="rTognye64vTiyhF6BSoS-16" value="Promotor" style="text;html=1;align=center;verticalAlign=middle;resizable=0;points=[];autosize=1;strokeColor=none;fillColor=none;" vertex="1" parent="1">
          <mxGeometry x="440" y="350" width="70" height="30" as="geometry" />
        </mxCell>
        <mxCell id="rTognye64vTiyhF6BSoS-17" value="Seminarzysta" style="text;html=1;align=center;verticalAlign=middle;resizable=0;points=[];autosize=1;strokeColor=none;fillColor=none;" vertex="1" parent="1">
          <mxGeometry x="200" y="350" width="100" height="30" as="geometry" />
        </mxCell>
        <mxCell id="rTognye64vTiyhF6BSoS-26" style="edgeStyle=orthogonalEdgeStyle;rounded=0;orthogonalLoop=1;jettySize=auto;html=1;entryX=0;entryY=0.5;entryDx=0;entryDy=0;endArrow=ERmandOne;endFill=0;startArrow=ERzeroToMany;startFill=0;" edge="1" parent="1" source="rTognye64vTiyhF6BSoS-19" target="rTognye64vTiyhF6BSoS-20">
          <mxGeometry relative="1" as="geometry" />
        </mxCell>
        <mxCell id="rTognye64vTiyhF6BSoS-31" value="zawiera" style="edgeLabel;html=1;align=center;verticalAlign=middle;resizable=0;points=[];" vertex="1" connectable="0" parent="rTognye64vTiyhF6BSoS-26">
          <mxGeometry x="-0.0492" y="1" relative="1" as="geometry">
            <mxPoint as="offset" />
          </mxGeometry>
        </mxCell>
        <mxCell id="rTognye64vTiyhF6BSoS-19" value="Plik" style="whiteSpace=wrap;html=1;align=center;" vertex="1" parent="1">
          <mxGeometry x="170" y="530" width="100" height="40" as="geometry" />
        </mxCell>
        <mxCell id="rTognye64vTiyhF6BSoS-20" value="Katalog" style="whiteSpace=wrap;html=1;align=center;" vertex="1" parent="1">
          <mxGeometry x="450" y="530" width="100" height="40" as="geometry" />
        </mxCell>
        <mxCell id="rTognye64vTiyhF6BSoS-23" style="edgeStyle=orthogonalEdgeStyle;rounded=0;orthogonalLoop=1;jettySize=auto;html=1;entryX=0.5;entryY=1;entryDx=0;entryDy=0;endArrow=ERzeroToMany;endFill=0;startArrow=ERzeroToOne;startFill=0;" edge="1" parent="1" source="rTognye64vTiyhF6BSoS-20" target="rTognye64vTiyhF6BSoS-20">
          <mxGeometry relative="1" as="geometry">
            <Array as="points">
              <mxPoint x="570" y="550" />
              <mxPoint x="570" y="590" />
              <mxPoint x="500" y="590" />
            </Array>
          </mxGeometry>
        </mxCell>
        <mxCell id="rTognye64vTiyhF6BSoS-27" value="Komputer" style="whiteSpace=wrap;html=1;align=center;" vertex="1" parent="1">
          <mxGeometry x="390" y="1050" width="100" height="40" as="geometry" />
        </mxCell>
        <mxCell id="rTognye64vTiyhF6BSoS-45" style="edgeStyle=orthogonalEdgeStyle;rounded=0;orthogonalLoop=1;jettySize=auto;html=1;entryX=0.5;entryY=1;entryDx=0;entryDy=0;endArrow=block;endFill=0;" edge="1" parent="1" source="rTognye64vTiyhF6BSoS-28" target="rTognye64vTiyhF6BSoS-27">
          <mxGeometry relative="1" as="geometry">
            <Array as="points">
              <mxPoint x="280" y="1130" />
              <mxPoint x="440" y="1130" />
            </Array>
          </mxGeometry>
        </mxCell>
        <mxCell id="rTognye64vTiyhF6BSoS-28" value="PC" style="shape=ext;margin=3;double=1;whiteSpace=wrap;html=1;align=center;" vertex="1" parent="1">
          <mxGeometry x="230" y="1150" width="100" height="40" as="geometry" />
        </mxCell>
        <mxCell id="rTognye64vTiyhF6BSoS-47" style="edgeStyle=orthogonalEdgeStyle;rounded=0;orthogonalLoop=1;jettySize=auto;html=1;endArrow=block;endFill=0;" edge="1" parent="1" source="rTognye64vTiyhF6BSoS-29">
          <mxGeometry relative="1" as="geometry">
            <mxPoint x="440" y="1090" as="targetPoint" />
          </mxGeometry>
        </mxCell>
        <mxCell id="rTognye64vTiyhF6BSoS-29" value="Laptop" style="shape=ext;margin=3;double=1;whiteSpace=wrap;html=1;align=center;" vertex="1" parent="1">
          <mxGeometry x="390" y="1150" width="100" height="40" as="geometry" />
        </mxCell>
        <mxCell id="rTognye64vTiyhF6BSoS-46" style="edgeStyle=orthogonalEdgeStyle;rounded=0;orthogonalLoop=1;jettySize=auto;html=1;endArrow=block;endFill=0;" edge="1" parent="1" source="rTognye64vTiyhF6BSoS-30">
          <mxGeometry relative="1" as="geometry">
            <mxPoint x="440" y="1090" as="targetPoint" />
            <Array as="points">
              <mxPoint x="600" y="1130" />
              <mxPoint x="440" y="1130" />
            </Array>
          </mxGeometry>
        </mxCell>
        <mxCell id="rTognye64vTiyhF6BSoS-30" value="Tablet" style="shape=ext;margin=3;double=1;whiteSpace=wrap;html=1;align=center;" vertex="1" parent="1">
          <mxGeometry x="550" y="1150" width="100" height="40" as="geometry" />
        </mxCell>
        <mxCell id="rTognye64vTiyhF6BSoS-36" value="Plik" style="whiteSpace=wrap;html=1;align=center;" vertex="1" parent="1">
          <mxGeometry x="160" y="640" width="100" height="40" as="geometry" />
        </mxCell>
        <mxCell id="rTognye64vTiyhF6BSoS-37" style="edgeStyle=orthogonalEdgeStyle;rounded=0;orthogonalLoop=1;jettySize=auto;html=1;entryX=0.5;entryY=1;entryDx=0;entryDy=0;endArrow=ERzeroToMany;endFill=0;startArrow=ERzeroToOne;startFill=0;" edge="1" parent="1" source="rTognye64vTiyhF6BSoS-36" target="rTognye64vTiyhF6BSoS-36">
          <mxGeometry relative="1" as="geometry">
            <Array as="points">
              <mxPoint x="280" y="660" />
              <mxPoint x="280" y="700" />
              <mxPoint x="210" y="700" />
            </Array>
          </mxGeometry>
        </mxCell>
        <mxCell id="rTognye64vTiyhF6BSoS-38" value="Katalog" style="text;html=1;align=center;verticalAlign=middle;resizable=0;points=[];autosize=1;strokeColor=none;fillColor=none;" vertex="1" parent="1">
          <mxGeometry x="260" y="628" width="60" height="30" as="geometry" />
        </mxCell>
        <mxCell id="rTognye64vTiyhF6BSoS-39" value="Plik/Katalog" style="text;html=1;align=center;verticalAlign=middle;resizable=0;points=[];autosize=1;strokeColor=none;fillColor=none;" vertex="1" parent="1">
          <mxGeometry x="120" y="680" width="90" height="30" as="geometry" />
        </mxCell>
        <mxCell id="rTognye64vTiyhF6BSoS-43" style="edgeStyle=orthogonalEdgeStyle;rounded=0;orthogonalLoop=1;jettySize=auto;html=1;entryX=0;entryY=0.5;entryDx=0;entryDy=0;endArrow=ERzeroToOne;endFill=0;startArrow=ERzeroToOne;startFill=0;" edge="1" parent="1" source="rTognye64vTiyhF6BSoS-40" target="rTognye64vTiyhF6BSoS-41">
          <mxGeometry relative="1" as="geometry" />
        </mxCell>
        <mxCell id="rTognye64vTiyhF6BSoS-40" value="Mieszkanie" style="whiteSpace=wrap;html=1;align=center;" vertex="1" parent="1">
          <mxGeometry x="200" y="880" width="100" height="40" as="geometry" />
        </mxCell>
        <mxCell id="rTognye64vTiyhF6BSoS-41" value="Garaż" style="whiteSpace=wrap;html=1;align=center;" vertex="1" parent="1">
          <mxGeometry x="425" y="880" width="100" height="40" as="geometry" />
        </mxCell>
        <mxCell id="rTognye64vTiyhF6BSoS-44" value="przypisany&amp;nbsp;" style="text;html=1;align=center;verticalAlign=middle;resizable=0;points=[];autosize=1;strokeColor=none;fillColor=none;" vertex="1" parent="1">
          <mxGeometry x="320" y="878" width="80" height="30" as="geometry" />
        </mxCell>
      </root>
    </mxGraphModel>
  </diagram>
</mxfile>
